<svg viewBox="120 128 272 272" xmlns="http://www.w3.org/2000/svg" shape-rendering="crispEdges" preserveAspectRatio="xMidYMid meet"><rect x="192" y="160" width="16" height="16" fill="#ce8a5a"/><rect x="208" y="160" width="16" height="16" fill="#ce8a5a"/><rect x="224" y="160" width="16" height="16" fill="#a35a32"/><rect x="240" y="160" width="16" height="16" fill="#a35a32"/><rect x="256" y="160" width="16" height="16" fill="#a35a32"/><rect x="272" y="160" width="16" height="16" fill="#a35a32"/><rect x="288" y="160" width="16" height="16" fill="#a35a32"/><rect x="304" y="160" width="16" height="16" fill="#a35a32"/><rect x="176" y="176" width="16" height="16" fill="#ce8a5a"/><rect x="192" y="176" width="16" height="16" fill="#ce8a5a"/><rect x="208" y="176" width="16" height="16" fill="#a35a32"/><rect x="224" y="176" width="16" height="16" fill="#a35a32"/><rect x="240" y="176" width="16" height="16" fill="#a35a32"/><rect x="256" y="176" width="16" height="16" fill="#a35a32"/><rect x="272" y="176" width="16" height="16" fill="#a35a32"/><rect x="288" y="176" width="16" height="16" fill="#a35a32"/><rect x="304" y="176" width="16" height="16" fill="#a35a32"/><rect x="320" y="176" width="16" height="16" fill="#a35a32"/><rect x="160" y="192" width="16" height="16" fill="#ce8a5a"/><rect x="176" y="192" width="16" height="16" fill="#ce8a5a"/><rect x="192" y="192" width="16" height="16" fill="#a35a32"/><rect x="208" y="192" width="16" height="16" fill="#a35a32"/><rect x="224" y="192" width="16" height="16" fill="#a35a32"/><rect x="240" y="192" width="16" height="16" fill="#a35a32"/><rect x="256" y="192" width="16" height="16" fill="#a35a32"/><rect x="272" y="192" width="16" height="16" fill="#a35a32"/><rect x="288" y="192" width="16" height="16" fill="#a35a32"/><rect x="304" y="192" width="16" height="16" fill="#a35a32"/><rect x="320" y="192" width="16" height="16" fill="#a35a32"/><rect x="336" y="192" width="16" height="16" fill="#a35a32"/><rect x="160" y="208" width="16" height="16" fill="#a35a32"/><rect x="176" y="208" width="16" height="16" fill="#a35a32"/><rect x="192" y="208" width="16" height="16" fill="#a35a32"/><rect x="208" y="208" width="16" height="16" fill="#a35a32"/><rect x="224" y="208" width="16" height="16" fill="#a35a32"/><rect x="240" y="208" width="16" height="16" fill="#a35a32"/><rect x="256" y="208" width="16" height="16" fill="#a35a32"/><rect x="272" y="208" width="16" height="16" fill="#a35a32"/><rect x="288" y="208" width="16" height="16" fill="#a35a32"/><rect x="304" y="208" width="16" height="16" fill="#a35a32"/><rect x="320" y="208" width="16" height="16" fill="#a35a32"/><rect x="336" y="208" width="16" height="16" fill="#a35a32"/><rect x="160" y="224" width="16" height="16" fill="#a35a32"/><rect x="176" y="224" width="16" height="16" fill="#a35a32"/><rect x="192" y="224" width="16" height="16" fill="#a35a32"/><rect x="208" y="224" width="16" height="16" fill="#1a0805"/><rect x="224" y="224" width="16" height="16" fill="#a35a32"/><rect x="240" y="224" width="16" height="16" fill="#a35a32"/><rect x="256" y="224" width="16" height="16" fill="#a35a32"/><rect x="272" y="224" width="16" height="16" fill="#a35a32"/><rect x="288" y="224" width="16" height="16" fill="#1a0805"/><rect x="304" y="224" width="16" height="16" fill="#a35a32"/><rect x="320" y="224" width="16" height="16" fill="#a35a32"/><rect x="336" y="224" width="16" height="16" fill="#a35a32"/><rect x="160" y="240" width="16" height="16" fill="#a35a32"/><rect x="176" y="240" width="16" height="16" fill="#a35a32"/><rect x="192" y="240" width="16" height="16" fill="#a35a32"/><rect x="208" y="240" width="16" height="16" fill="#a35a32"/><rect x="224" y="240" width="16" height="16" fill="#a35a32"/><rect x="240" y="240" width="16" height="16" fill="#a35a32"/><rect x="256" y="240" width="16" height="16" fill="#a35a32"/><rect x="272" y="240" width="16" height="16" fill="#a35a32"/><rect x="288" y="240" width="16" height="16" fill="#a35a32"/><rect x="304" y="240" width="16" height="16" fill="#a35a32"/><rect x="320" y="240" width="16" height="16" fill="#a35a32"/><rect x="336" y="240" width="16" height="16" fill="#a35a32"/><rect x="160" y="256" width="16" height="16" fill="#a35a32"/><rect x="176" y="256" width="16" height="16" fill="#a35a32"/><rect x="192" y="256" width="16" height="16" fill="#a35a32"/><rect x="208" y="256" width="16" height="16" fill="#a35a32"/><rect x="224" y="256" width="16" height="16" fill="#a35a32"/><rect x="240" y="256" width="16" height="16" fill="#a35a32"/><rect x="256" y="256" width="16" height="16" fill="#a35a32"/><rect x="272" y="256" width="16" height="16" fill="#a35a32"/><rect x="288" y="256" width="16" height="16" fill="#a35a32"/><rect x="304" y="256" width="16" height="16" fill="#a35a32"/><rect x="320" y="256" width="16" height="16" fill="#a35a32"/><rect x="336" y="256" width="16" height="16" fill="#a35a32"/><rect x="160" y="272" width="16" height="16" fill="#5a2a10"/><rect x="176" y="272" width="16" height="16" fill="#5a2a10"/><rect x="192" y="272" width="16" height="16" fill="#5a2a10"/><rect x="208" y="272" width="16" height="16" fill="#5a2a10"/><rect x="224" y="272" width="16" height="16" fill="#5a2a10"/><rect x="240" y="272" width="16" height="16" fill="#cfb56a"/><rect x="256" y="272" width="16" height="16" fill="#cfb56a"/><rect x="272" y="272" width="16" height="16" fill="#5a2a10"/><rect x="288" y="272" width="16" height="16" fill="#5a2a10"/><rect x="304" y="272" width="16" height="16" fill="#5a2a10"/><rect x="320" y="272" width="16" height="16" fill="#5a2a10"/><rect x="336" y="272" width="16" height="16" fill="#5a2a10"/><rect x="160" y="288" width="16" height="16" fill="#a35a32"/><rect x="176" y="288" width="16" height="16" fill="#a35a32"/><rect x="192" y="288" width="16" height="16" fill="#a35a32"/><rect x="208" y="288" width="16" height="16" fill="#a35a32"/><rect x="224" y="288" width="16" height="16" fill="#a35a32"/><rect x="240" y="288" width="16" height="16" fill="#a35a32"/><rect x="256" y="288" width="16" height="16" fill="#a35a32"/><rect x="272" y="288" width="16" height="16" fill="#a35a32"/><rect x="288" y="288" width="16" height="16" fill="#a35a32"/><rect x="304" y="288" width="16" height="16" fill="#a35a32"/><rect x="320" y="288" width="16" height="16" fill="#6e3814"/><rect x="336" y="288" width="16" height="16" fill="#6e3814"/><rect x="160" y="304" width="16" height="16" fill="#a35a32"/><rect x="176" y="304" width="16" height="16" fill="#a35a32"/><rect x="192" y="304" width="16" height="16" fill="#a35a32"/><rect x="208" y="304" width="16" height="16" fill="#a35a32"/><rect x="224" y="304" width="16" height="16" fill="#a35a32"/><rect x="240" y="304" width="16" height="16" fill="#a35a32"/><rect x="256" y="304" width="16" height="16" fill="#a35a32"/><rect x="272" y="304" width="16" height="16" fill="#a35a32"/><rect x="288" y="304" width="16" height="16" fill="#a35a32"/><rect x="304" y="304" width="16" height="16" fill="#6e3814"/><rect x="320" y="304" width="16" height="16" fill="#6e3814"/><rect x="336" y="304" width="16" height="16" fill="#a35a32"/><rect x="176" y="320" width="16" height="16" fill="#a35a32"/><rect x="192" y="320" width="16" height="16" fill="#a35a32"/><rect x="208" y="320" width="16" height="16" fill="#a35a32"/><rect x="224" y="320" width="16" height="16" fill="#a35a32"/><rect x="240" y="320" width="16" height="16" fill="#a35a32"/><rect x="256" y="320" width="16" height="16" fill="#a35a32"/><rect x="272" y="320" width="16" height="16" fill="#a35a32"/><rect x="288" y="320" width="16" height="16" fill="#a35a32"/><rect x="304" y="320" width="16" height="16" fill="#a35a32"/><rect x="320" y="320" width="16" height="16" fill="#6e3814"/><rect x="192" y="336" width="16" height="16" fill="#a35a32"/><rect x="208" y="336" width="16" height="16" fill="#a35a32"/><rect x="288" y="336" width="16" height="16" fill="#a35a32"/><rect x="304" y="336" width="16" height="16" fill="#6e3814"/><rect x="192" y="352" width="16" height="16" fill="#3e1c08"/><rect x="208" y="352" width="16" height="16" fill="#3e1c08"/><rect x="288" y="352" width="16" height="16" fill="#3e1c08"/><rect x="304" y="352" width="16" height="16" fill="#3e1c08"/></svg>
