<svg xmlns="http://www.w3.org/2000/svg" viewBox="0 -4 48 56" shape-rendering="crispEdges">
  <!-- 48×52 head-only · Chair · rounded face, slate hair, calm cyan-iris
       eyes, neutral mouth, neck stub.
       skin    #EFD0AC · #E5C2A2 · #D6A878 · #B58858 · #6E4830 · #3F2818
       hair    #3A4555 · #2C3645 · #1F2933 · #15191F · highlight #5A6470
       cyan    #6A9B97 · #4D7A78 · #A8C9C5 · deep #2F4D4B
  -->

  <!-- ═══ HAIR ═══ -->
  <rect x="11" y="3" width="26" height="1" fill="#15191F"/>
  <rect x="9"  y="4" width="30" height="1" fill="#1F2933"/>
  <rect x="9"  y="5" width="30" height="2" fill="#2C3645"/>
  <rect x="9"  y="7" width="30" height="3" fill="#3A4555"/>
  <rect x="9"  y="10" width="2" height="3" fill="#2C3645"/>
  <rect x="37" y="10" width="2" height="3" fill="#2C3645"/>
  <rect x="11" y="10" width="2" height="2" fill="#2C3645"/>
  <rect x="35" y="10" width="2" height="2" fill="#2C3645"/>
  <rect x="9"  y="3" width="1"  height="10" fill="#15191F"/>
  <rect x="38" y="3" width="1"  height="10" fill="#15191F"/>
  <rect x="14" y="6" width="6" height="1" fill="#5A6470"/>
  <rect x="24" y="6" width="6" height="1" fill="#5A6470"/>

  <!-- ═══ ROUNDED HEAD ═══ -->
  <rect x="13" y="10" width="22" height="1" fill="#3F2818"/>
  <rect x="11" y="11" width="2"  height="1" fill="#3F2818"/>
  <rect x="35" y="11" width="2"  height="1" fill="#3F2818"/>
  <rect x="9"  y="12" width="2"  height="1" fill="#3F2818"/>
  <rect x="37" y="12" width="2"  height="1" fill="#3F2818"/>
  <rect x="8"  y="13" width="1"  height="17" fill="#3F2818"/>
  <rect x="39" y="13" width="1"  height="17" fill="#3F2818"/>
  <rect x="9"  y="30" width="2"  height="1" fill="#3F2818"/>
  <rect x="37" y="30" width="2"  height="1" fill="#3F2818"/>
  <rect x="11" y="31" width="2"  height="1" fill="#3F2818"/>
  <rect x="35" y="31" width="2"  height="1" fill="#3F2818"/>
  <rect x="13" y="32" width="22" height="1" fill="#3F2818"/>
  <rect x="13" y="10" width="22" height="1" fill="#D6A878"/>
  <rect x="11" y="11" width="26" height="1" fill="#D6A878"/>
  <rect x="9"  y="12" width="30" height="1" fill="#D6A878"/>
  <rect x="9"  y="13" width="30" height="17" fill="#D6A878"/>
  <rect x="9"  y="30" width="30" height="1" fill="#D6A878"/>
  <rect x="11" y="31" width="26" height="1" fill="#D6A878"/>
  <rect x="13" y="32" width="22" height="1" fill="#D6A878"/>
  <rect x="13" y="11" width="22" height="2" fill="#E5C2A2"/>
  <rect x="14" y="12" width="20" height="1" fill="#EFD0AC"/>
  <rect x="9"  y="18" width="2"  height="9" fill="#6E4830"/>
  <rect x="37" y="18" width="2"  height="9" fill="#6E4830"/>
  <rect x="11" y="22" width="3" height="3" fill="#E5C2A2"/>
  <rect x="34" y="22" width="3" height="3" fill="#E5C2A2"/>
  <rect x="11" y="27" width="26" height="2" fill="#B58858"/>
  <rect x="13" y="29" width="22" height="2" fill="#6E4830"/>

  <!-- EVEN NEUTRAL EYEBROWS -->
  <rect x="13" y="14" width="9" height="1" fill="#1F2933"/>
  <rect x="26" y="14" width="9" height="1" fill="#1F2933"/>

  <!-- ═══ EYES · cyan iris ═══ -->
  <rect x="14" y="17" width="6" height="3" fill="#FFFFFF"/>
  <rect x="28" y="17" width="6" height="3" fill="#FFFFFF"/>
  <rect x="15" y="17" width="3" height="3" fill="#6A9B97"/>
  <rect x="29" y="17" width="3" height="3" fill="#6A9B97"/>
  <rect x="15" y="17" width="2" height="2" fill="#1F1F1F"/>
  <rect x="29" y="17" width="2" height="2" fill="#1F1F1F"/>
  <rect x="15" y="17" width="1" height="1" fill="#A8C9C5"/>
  <rect x="29" y="17" width="1" height="1" fill="#A8C9C5"/>
  <rect x="14" y="16" width="6" height="1" fill="#3F2818"/>
  <rect x="28" y="16" width="6" height="1" fill="#3F2818"/>

  <!-- ═══ NOSE ═══ -->
  <rect x="22" y="18" width="4" height="6" fill="#D6A878"/>
  <rect x="22" y="18" width="1" height="6" fill="#E5C2A2"/>
  <rect x="22" y="18" width="1" height="3" fill="#EFD0AC"/>
  <rect x="25" y="20" width="1" height="4" fill="#B58858"/>
  <rect x="22" y="24" width="4" height="1" fill="#6E4830"/>
  <rect x="21" y="24" width="1" height="1" fill="#6E4830"/>
  <rect x="26" y="24" width="1" height="1" fill="#6E4830"/>

  <!-- ═══ NEUTRAL MOUTH ═══ -->
  <rect x="18" y="26" width="12" height="1" fill="#5A4838"/>

  <!-- ═══ NECK STUB ═══ -->
  <rect x="19" y="33" width="10" height="6" fill="#D6A878"/>
  <rect x="19" y="33" width="10" height="1" fill="#6E4830"/>
  <rect x="19" y="33" width="1"  height="6" fill="#6E4830"/>
  <rect x="28" y="33" width="1"  height="6" fill="#6E4830"/>
  <rect x="20" y="34" width="8"  height="1" fill="#E5C2A2"/>
  <!-- collar shadow at bottom -->
  <rect x="14" y="39" width="20" height="2" fill="#6E4830" opacity="0.5"/>
  <rect x="13" y="41" width="22" height="3" fill="#3F2818" opacity="0.35"/>
  <!-- tiny cyan boutonnière hint at neck base -->
  <rect x="22" y="42" width="4" height="2" fill="#4D7A78"/>
  <rect x="23" y="42" width="2" height="1" fill="#6A9B97"/>
  <rect x="23" y="42" width="1" height="1" fill="#A8C9C5"/>

  <rect x="2"  y="14" width="1" height="1" fill="#FFFFFF" opacity="0.7"/>
  <rect x="44" y="15" width="1" height="1" fill="#FFFFFF" opacity="0.7"/>
  <rect x="1"  y="25" width="1" height="1" fill="#FFFFFF" opacity="0.5"/>
  <rect x="46" y="28" width="1" height="1" fill="#FFFFFF" opacity="0.5"/>
</svg>
