<svg xmlns="http://www.w3.org/2000/svg" viewBox="0 -4 48 56" shape-rendering="crispEdges">
  <!-- 48×52 head-only · Long Horizon · rounded face, long flowing white
       hair + beard, amber-iris contemplative eyes, neck stub at base.
       skin    #ECC8A0 · #D6A878 · #B58858 · #6E4830 · #3F2818
       hair    #FFFFFF · #F0EDE5 · #DAD5C8 · #B8B0A0 · #6E665F
  -->

  <!-- ═══ HAIR (top mass) ═══ -->
  <rect x="11" y="2" width="26" height="1" fill="#B8B0A0"/>
  <rect x="9"  y="3" width="30" height="1" fill="#DAD5C8"/>
  <rect x="8"  y="4" width="32" height="2" fill="#F0EDE5"/>
  <rect x="7"  y="6" width="34" height="3" fill="#FFFFFF"/>
  <rect x="7"  y="9" width="34" height="2" fill="#F0EDE5"/>
  <!-- side hair flowing past head -->
  <rect x="6"  y="11" width="3" height="20" fill="#FFFFFF"/>
  <rect x="39" y="11" width="3" height="20" fill="#FFFFFF"/>
  <rect x="5"  y="14" width="2" height="17" fill="#F0EDE5"/>
  <rect x="41" y="14" width="2" height="17" fill="#F0EDE5"/>
  <rect x="4"  y="17" width="1" height="14" fill="#6E665F"/>
  <rect x="43" y="17" width="1" height="14" fill="#6E665F"/>
  <rect x="11" y="2" width="1"  height="9" fill="#6E665F"/>
  <rect x="36" y="2" width="1"  height="9" fill="#6E665F"/>
  <rect x="11" y="4" width="3" height="1" fill="#FFFFFF"/>
  <rect x="22" y="4" width="5" height="1" fill="#FFFFFF"/>
  <rect x="32" y="4" width="3" height="1" fill="#FFFFFF"/>

  <!-- ═══ ROUNDED HEAD ═══ -->
  <rect x="13" y="11" width="22" height="1" fill="#3F2818"/>
  <rect x="11" y="12" width="2"  height="1" fill="#3F2818"/>
  <rect x="35" y="12" width="2"  height="1" fill="#3F2818"/>
  <rect x="9"  y="13" width="2"  height="1" fill="#3F2818"/>
  <rect x="37" y="13" width="2"  height="1" fill="#3F2818"/>
  <rect x="8"  y="14" width="1"  height="16" fill="#3F2818"/>
  <rect x="39" y="14" width="1"  height="16" fill="#3F2818"/>
  <rect x="9"  y="30" width="2"  height="1" fill="#3F2818"/>
  <rect x="37" y="30" width="2"  height="1" fill="#3F2818"/>
  <rect x="11" y="31" width="2"  height="1" fill="#3F2818"/>
  <rect x="35" y="31" width="2"  height="1" fill="#3F2818"/>
  <rect x="13" y="32" width="22" height="1" fill="#3F2818"/>
  <rect x="13" y="11" width="22" height="1" fill="#D6A878"/>
  <rect x="11" y="12" width="26" height="1" fill="#D6A878"/>
  <rect x="9"  y="13" width="30" height="1" fill="#D6A878"/>
  <rect x="9"  y="14" width="30" height="16" fill="#D6A878"/>
  <rect x="9"  y="30" width="30" height="1" fill="#D6A878"/>
  <rect x="11" y="31" width="26" height="1" fill="#D6A878"/>
  <rect x="13" y="32" width="22" height="1" fill="#D6A878"/>
  <rect x="13" y="12" width="22" height="2" fill="#ECC8A0"/>
  <!-- forehead wisdom-creases -->
  <rect x="13" y="15" width="22" height="1" fill="#B58858"/>
  <rect x="13" y="16" width="22" height="1" fill="#B58858" opacity="0.4"/>
  <rect x="9"  y="19" width="2"  height="9" fill="#6E4830"/>
  <rect x="37" y="19" width="2"  height="9" fill="#6E4830"/>
  <rect x="11" y="23" width="2" height="1" fill="#B58858"/>
  <rect x="35" y="23" width="2" height="1" fill="#B58858"/>
  <rect x="11" y="27" width="26" height="2" fill="#B58858"/>
  <rect x="13" y="29" width="22" height="2" fill="#6E4830"/>

  <!-- WHITE WISPY EYEBROWS -->
  <rect x="13" y="17" width="9" height="1" fill="#DAD5C8"/>
  <rect x="26" y="17" width="9" height="1" fill="#DAD5C8"/>
  <rect x="13" y="18" width="9" height="1" fill="#FFFFFF"/>
  <rect x="26" y="18" width="9" height="1" fill="#FFFFFF"/>

  <!-- ═══ EYES · amber iris ═══ -->
  <rect x="14" y="19" width="6" height="3" fill="#FFFFFF"/>
  <rect x="28" y="19" width="6" height="3" fill="#FFFFFF"/>
  <rect x="15" y="19" width="3" height="3" fill="#C99826"/>
  <rect x="29" y="19" width="3" height="3" fill="#C99826"/>
  <rect x="15" y="19" width="2" height="2" fill="#1F1F1F"/>
  <rect x="29" y="19" width="2" height="2" fill="#1F1F1F"/>
  <rect x="15" y="19" width="1" height="1" fill="#FFD050"/>
  <rect x="29" y="19" width="1" height="1" fill="#FFD050"/>

  <!-- ROUND GOLD WIRE-RIM GLASSES (granny scholar half-moon style) -->
  <!-- Left lens · thin gold rim (4w × 3h round) -->
  <rect x="14" y="18" width="6" height="1" fill="#A87818"/>
  <rect x="14" y="22" width="6" height="1" fill="#A87818"/>
  <rect x="13" y="19" width="1" height="3" fill="#A87818"/>
  <rect x="20" y="19" width="1" height="3" fill="#A87818"/>
  <!-- gold highlights for shine -->
  <rect x="15" y="18" width="2" height="1" fill="#F2C037"/>
  <rect x="14" y="19" width="1" height="1" fill="#F2C037"/>
  <!-- Right lens -->
  <rect x="28" y="18" width="6" height="1" fill="#A87818"/>
  <rect x="28" y="22" width="6" height="1" fill="#A87818"/>
  <rect x="27" y="19" width="1" height="3" fill="#A87818"/>
  <rect x="34" y="19" width="1" height="3" fill="#A87818"/>
  <rect x="29" y="18" width="2" height="1" fill="#F2C037"/>
  <rect x="28" y="19" width="1" height="1" fill="#F2C037"/>
  <!-- Bridge -->
  <rect x="21" y="20" width="6" height="1" fill="#A87818"/>
  <!-- Temple arms -->
  <rect x="11" y="20" width="2" height="1" fill="#A87818"/>
  <rect x="35" y="20" width="2" height="1" fill="#A87818"/>

  <!-- ═══ NOSE ═══ -->
  <rect x="22" y="20" width="4" height="6" fill="#D6A878"/>
  <rect x="22" y="20" width="1" height="6" fill="#ECC8A0"/>
  <rect x="22" y="20" width="1" height="3" fill="#FFE5C5"/>
  <rect x="25" y="22" width="1" height="4" fill="#B58858"/>
  <rect x="22" y="26" width="4" height="1" fill="#6E4830"/>

  <!-- ═══ MUSTACHE ═══ -->
  <rect x="13" y="27" width="9" height="1" fill="#DAD5C8"/>
  <rect x="26" y="27" width="9" height="1" fill="#DAD5C8"/>
  <rect x="12" y="28" width="11" height="1" fill="#FFFFFF"/>
  <rect x="25" y="28" width="11" height="1" fill="#FFFFFF"/>
  <rect x="11" y="29" width="3" height="1" fill="#DAD5C8"/>
  <rect x="34" y="29" width="3" height="1" fill="#DAD5C8"/>

  <!-- ═══ LONG WHITE BEARD ═══ -->
  <rect x="9"  y="30" width="1" height="14" fill="#6E665F"/>
  <rect x="38" y="30" width="1" height="14" fill="#6E665F"/>
  <rect x="11" y="44" width="2" height="1" fill="#6E665F"/>
  <rect x="35" y="44" width="2" height="1" fill="#6E665F"/>
  <rect x="13" y="45" width="22" height="1" fill="#6E665F"/>
  <rect x="10" y="30" width="28" height="14" fill="#FFFFFF"/>
  <rect x="13" y="45" width="22" height="1" fill="#FFFFFF"/>
  <rect x="11" y="30" width="26" height="2" fill="#FFFFFF"/>
  <rect x="10" y="38" width="28" height="2" fill="#F0EDE5"/>
  <rect x="10" y="40" width="28" height="2" fill="#DAD5C8"/>
  <rect x="10" y="42" width="28" height="2" fill="#B8B0A0"/>
  <rect x="13" y="32" width="1" height="12" fill="#F0EDE5"/>
  <rect x="17" y="33" width="1" height="11" fill="#DAD5C8"/>
  <rect x="20" y="32" width="1" height="12" fill="#F0EDE5"/>
  <rect x="24" y="33" width="1" height="11" fill="#DAD5C8"/>
  <rect x="27" y="32" width="1" height="12" fill="#F0EDE5"/>
  <rect x="31" y="33" width="1" height="11" fill="#DAD5C8"/>
  <rect x="34" y="32" width="1" height="12" fill="#F0EDE5"/>
  <rect x="15" y="31" width="1" height="3" fill="#FFFFFF"/>
  <rect x="22" y="31" width="1" height="3" fill="#FFFFFF"/>
  <rect x="29" y="31" width="1" height="3" fill="#FFFFFF"/>

  <!-- ═══ NECK (small skin under beard at very bottom) ═══ -->
  <rect x="22" y="46" width="4" height="3" fill="#D6A878"/>
  <rect x="22" y="46" width="4" height="1" fill="#6E4830"/>

  <!-- cosmic sparkles -->
  <rect x="2"  y="6"  width="1" height="1" fill="#FFFFFF"/>
  <rect x="3"  y="5"  width="1" height="1" fill="#FFFFFF"/>
  <rect x="44" y="8"  width="1" height="1" fill="#FFFFFF"/>
  <rect x="45" y="7"  width="1" height="1" fill="#FFFFFF"/>
  <rect x="1"  y="20" width="1" height="1" fill="#FFFFFF" opacity="0.7"/>
  <rect x="46" y="25" width="1" height="1" fill="#FFFFFF" opacity="0.7"/>
  <rect x="2"  y="36" width="1" height="1" fill="#F2C037" opacity="0.6"/>
  <rect x="45" y="40" width="1" height="1" fill="#F2C037" opacity="0.6"/>
</svg>
