<svg xmlns="http://www.w3.org/2000/svg" viewBox="0 -4 48 56" shape-rendering="crispEdges">
  <!-- 48×52 head-only · User Empathy · rounded face, auburn curls,
       warm green eyes with lashes, big smile, neck stub.
       skin    #FFE5C5 · #FFCFA2 · #F2B585 · #D69570 · #A8704A · #5A3520
       hair    #F5904A · #E26336 · #D44820 · #A8482A · #8E2A12 · #5A1808
  -->

  <!-- ═══ AUBURN CURLY HAIR · top curl bumps ═══ -->
  <rect x="11" y="2" width="3" height="1" fill="#5A1808"/>
  <rect x="16" y="2" width="3" height="1" fill="#5A1808"/>
  <rect x="22" y="2" width="3" height="1" fill="#5A1808"/>
  <rect x="28" y="2" width="3" height="1" fill="#5A1808"/>
  <rect x="33" y="2" width="3" height="1" fill="#5A1808"/>
  <rect x="9"  y="3" width="30" height="1" fill="#8E2A12"/>
  <rect x="8"  y="4" width="32" height="2" fill="#A8482A"/>
  <rect x="7"  y="6" width="34" height="3" fill="#D44820"/>
  <rect x="7"  y="9" width="34" height="2" fill="#E26336"/>
  <!-- side curls flowing past head -->
  <rect x="6"  y="11" width="3" height="20" fill="#D44820"/>
  <rect x="39" y="11" width="3" height="20" fill="#D44820"/>
  <rect x="5"  y="14" width="2" height="14" fill="#E26336"/>
  <rect x="41" y="14" width="2" height="14" fill="#E26336"/>
  <rect x="4"  y="14" width="1" height="14" fill="#5A1808"/>
  <rect x="43" y="14" width="1" height="14" fill="#5A1808"/>
  <rect x="5"  y="28" width="2" height="3" fill="#5A1808"/>
  <rect x="41" y="28" width="2" height="3" fill="#5A1808"/>
  <!-- curl bumps (texture along sides) -->
  <rect x="5"  y="17" width="1" height="2" fill="#F5904A"/>
  <rect x="42" y="17" width="1" height="2" fill="#F5904A"/>
  <rect x="5"  y="22" width="1" height="2" fill="#F5904A"/>
  <rect x="42" y="22" width="1" height="2" fill="#F5904A"/>
  <!-- highlight strands -->
  <rect x="13" y="5" width="3" height="1" fill="#F5904A"/>
  <rect x="22" y="5" width="3" height="1" fill="#F5904A"/>
  <rect x="32" y="5" width="3" height="1" fill="#F5904A"/>
  <rect x="11" y="8" width="3" height="1" fill="#F5904A"/>

  <!-- ═══ ROUNDED HEAD ═══ -->
  <rect x="13" y="11" width="22" height="1" fill="#5A3520"/>
  <rect x="11" y="12" width="2"  height="1" fill="#5A3520"/>
  <rect x="35" y="12" width="2"  height="1" fill="#5A3520"/>
  <rect x="9"  y="13" width="2"  height="1" fill="#5A3520"/>
  <rect x="37" y="13" width="2"  height="1" fill="#5A3520"/>
  <rect x="8"  y="14" width="1"  height="16" fill="#5A3520"/>
  <rect x="39" y="14" width="1"  height="16" fill="#5A3520"/>
  <rect x="9"  y="30" width="2"  height="1" fill="#5A3520"/>
  <rect x="37" y="30" width="2"  height="1" fill="#5A3520"/>
  <rect x="11" y="31" width="2"  height="1" fill="#5A3520"/>
  <rect x="35" y="31" width="2"  height="1" fill="#5A3520"/>
  <rect x="13" y="32" width="22" height="1" fill="#5A3520"/>
  <rect x="13" y="11" width="22" height="1" fill="#F2B585"/>
  <rect x="11" y="12" width="26" height="1" fill="#F2B585"/>
  <rect x="9"  y="13" width="30" height="1" fill="#F2B585"/>
  <rect x="9"  y="14" width="30" height="16" fill="#F2B585"/>
  <rect x="9"  y="30" width="30" height="1" fill="#F2B585"/>
  <rect x="11" y="31" width="26" height="1" fill="#F2B585"/>
  <rect x="13" y="32" width="22" height="1" fill="#F2B585"/>
  <rect x="13" y="12" width="22" height="2" fill="#FFCFA2"/>
  <rect x="14" y="13" width="20" height="1" fill="#FFE5C5"/>
  <rect x="11" y="22" width="4" height="3" fill="#F5A89A" opacity="0.85"/>
  <rect x="33" y="22" width="4" height="3" fill="#F5A89A" opacity="0.85"/>
  <rect x="11" y="27" width="26" height="2" fill="#D69570"/>
  <rect x="13" y="29" width="22" height="2" fill="#A8704A"/>

  <!-- SOFT EYEBROWS -->
  <rect x="13" y="15" width="7" height="1" fill="#A8482A"/>
  <rect x="28" y="15" width="7" height="1" fill="#A8482A"/>

  <!-- ═══ EYES · warm green with lashes ═══ -->
  <rect x="13" y="17" width="7" height="3" fill="#FFFFFF"/>
  <rect x="28" y="17" width="7" height="3" fill="#FFFFFF"/>
  <rect x="14" y="17" width="4" height="3" fill="#5A8A4D"/>
  <rect x="29" y="17" width="4" height="3" fill="#5A8A4D"/>
  <rect x="15" y="17" width="2" height="2" fill="#1F1F1F"/>
  <rect x="30" y="17" width="2" height="2" fill="#1F1F1F"/>
  <rect x="15" y="17" width="1" height="1" fill="#FFFFFF"/>
  <rect x="30" y="17" width="1" height="1" fill="#FFFFFF"/>
  <!-- LASHES -->
  <rect x="12" y="16" width="1" height="1" fill="#5A2818"/>
  <rect x="15" y="16" width="1" height="1" fill="#5A2818"/>
  <rect x="18" y="16" width="1" height="1" fill="#5A2818"/>
  <rect x="20" y="16" width="1" height="1" fill="#5A2818"/>
  <rect x="27" y="16" width="1" height="1" fill="#5A2818"/>
  <rect x="30" y="16" width="1" height="1" fill="#5A2818"/>
  <rect x="33" y="16" width="1" height="1" fill="#5A2818"/>
  <rect x="35" y="16" width="1" height="1" fill="#5A2818"/>
  <rect x="13" y="20" width="7" height="1" fill="#A8704A"/>
  <rect x="28" y="20" width="7" height="1" fill="#A8704A"/>

  <!-- ═══ SMALL NOSE ═══ -->
  <rect x="22" y="19" width="4" height="5" fill="#F2B585"/>
  <rect x="22" y="19" width="1" height="5" fill="#FFCFA2"/>
  <rect x="25" y="21" width="1" height="3" fill="#D69570"/>
  <rect x="22" y="24" width="4" height="1" fill="#A8704A"/>

  <!-- ═══ WARM SMILE ═══ -->
  <rect x="14" y="25" width="1" height="1" fill="#A85040"/>
  <rect x="33" y="25" width="1" height="1" fill="#A85040"/>
  <rect x="15" y="26" width="18" height="1" fill="#A85040"/>
  <rect x="16" y="27" width="16" height="1" fill="#D67F5C"/>
  <rect x="22" y="26" width="4" height="1" fill="#FFFFFF"/>

  <!-- ═══ NECK STUB ═══ -->
  <rect x="19" y="33" width="10" height="6" fill="#F2B585"/>
  <rect x="19" y="33" width="10" height="1" fill="#A8704A"/>
  <rect x="19" y="33" width="1"  height="6" fill="#A8704A"/>
  <rect x="28" y="33" width="1"  height="6" fill="#A8704A"/>
  <rect x="20" y="34" width="8"  height="1" fill="#FFCFA2"/>
  <!-- collar shadow -->
  <rect x="14" y="39" width="20" height="2" fill="#A8704A" opacity="0.6"/>
  <rect x="13" y="41" width="22" height="3" fill="#5A3520" opacity="0.4"/>

  <rect x="2"  y="14" width="1" height="1" fill="#FFFFFF"/>
  <rect x="44" y="15" width="1" height="1" fill="#FFFFFF"/>
  <rect x="1"  y="25" width="1" height="1" fill="#FFB0B8" opacity="0.7"/>
  <rect x="46" y="28" width="1" height="1" fill="#FFB0B8" opacity="0.7"/>
</svg>
