<svg xmlns="http://www.w3.org/2000/svg" viewBox="0 -4 48 56" shape-rendering="crispEdges">
  <!-- 48×52 head-only · Value Investor · rounded face, salt-and-pepper hair,
       tortoise-shell glasses, knowing eyes, neck stub.
       skin    #F2C8A2 · #E8B084 · #D69970 · #B58050 · #6E4830 · #3F2818
       hair    #FFFFFF · #C8C5BE · #9C9890 · #6E665F · #3A3A3A · #1A1A1A
       glass   #5A3825 · #3F2A1F · #2A1A12 · highlight #A88566
  -->

  <!-- ═══ HAIR · salt-and-pepper, neat side-parted ═══ -->
  <rect x="11" y="3" width="26" height="1" fill="#1A1A1A"/>
  <rect x="9"  y="4" width="30" height="1" fill="#3A3A3A"/>
  <rect x="9"  y="5" width="30" height="1" fill="#6E665F"/>
  <rect x="9"  y="6" width="30" height="2" fill="#9C9890"/>
  <rect x="9"  y="8" width="30" height="2" fill="#C8C5BE"/>
  <rect x="9"  y="10" width="2" height="3" fill="#9C9890"/>
  <rect x="37" y="10" width="2" height="3" fill="#9C9890"/>
  <rect x="11" y="10" width="2" height="2" fill="#9C9890"/>
  <rect x="35" y="10" width="2" height="2" fill="#9C9890"/>
  <rect x="9"  y="3" width="1"  height="10" fill="#1A1A1A"/>
  <rect x="38" y="3" width="1"  height="10" fill="#1A1A1A"/>
  <rect x="13" y="4" width="4" height="1" fill="#FFFFFF"/>
  <rect x="22" y="4" width="5" height="1" fill="#FFFFFF"/>
  <rect x="11" y="6" width="4" height="1" fill="#FFFFFF"/>
  <rect x="32" y="5" width="3" height="1" fill="#FFFFFF"/>

  <!-- ═══ ROUNDED HEAD ═══ -->
  <rect x="13" y="10" width="22" height="1" fill="#3F2818"/>
  <rect x="11" y="11" width="2"  height="1" fill="#3F2818"/>
  <rect x="35" y="11" width="2"  height="1" fill="#3F2818"/>
  <rect x="9"  y="12" width="2"  height="1" fill="#3F2818"/>
  <rect x="37" y="12" width="2"  height="1" fill="#3F2818"/>
  <rect x="8"  y="13" width="1"  height="17" fill="#3F2818"/>
  <rect x="39" y="13" width="1"  height="17" fill="#3F2818"/>
  <rect x="9"  y="30" width="2"  height="1" fill="#3F2818"/>
  <rect x="37" y="30" width="2"  height="1" fill="#3F2818"/>
  <rect x="11" y="31" width="2"  height="1" fill="#3F2818"/>
  <rect x="35" y="31" width="2"  height="1" fill="#3F2818"/>
  <rect x="13" y="32" width="22" height="1" fill="#3F2818"/>
  <rect x="13" y="10" width="22" height="1" fill="#D69970"/>
  <rect x="11" y="11" width="26" height="1" fill="#D69970"/>
  <rect x="9"  y="12" width="30" height="1" fill="#D69970"/>
  <rect x="9"  y="13" width="30" height="17" fill="#D69970"/>
  <rect x="9"  y="30" width="30" height="1" fill="#D69970"/>
  <rect x="11" y="31" width="26" height="1" fill="#D69970"/>
  <rect x="13" y="32" width="22" height="1" fill="#D69970"/>
  <rect x="13" y="11" width="22" height="2" fill="#E8B084"/>
  <rect x="14" y="12" width="20" height="1" fill="#F2C8A2"/>
  <rect x="13" y="14" width="22" height="1" fill="#B58050"/>
  <rect x="9"  y="18" width="2"  height="9" fill="#6E4830"/>
  <rect x="37" y="18" width="2"  height="9" fill="#6E4830"/>
  <rect x="11" y="27" width="26" height="2" fill="#B58050"/>
  <rect x="13" y="29" width="22" height="2" fill="#6E4830"/>

  <!-- KNOWING DARK BROWS -->
  <rect x="13" y="14" width="9" height="1" fill="#1A1A1A"/>
  <rect x="26" y="14" width="9" height="1" fill="#1A1A1A"/>
  <rect x="13" y="15" width="3" height="1" fill="#3A3A3A"/>
  <rect x="32" y="15" width="3" height="1" fill="#3A3A3A"/>

  <!-- ═══ TORTOISE-SHELL GLASSES ═══ -->
  <rect x="11" y="16" width="11" height="1" fill="#2A1A12"/>
  <rect x="11" y="22" width="11" height="1" fill="#2A1A12"/>
  <rect x="11" y="17" width="1"  height="5" fill="#2A1A12"/>
  <rect x="21" y="17" width="1"  height="5" fill="#2A1A12"/>
  <rect x="26" y="16" width="11" height="1" fill="#2A1A12"/>
  <rect x="26" y="22" width="11" height="1" fill="#2A1A12"/>
  <rect x="26" y="17" width="1"  height="5" fill="#2A1A12"/>
  <rect x="36" y="17" width="1"  height="5" fill="#2A1A12"/>
  <rect x="12" y="16" width="9" height="1" fill="#3F2A1F"/>
  <rect x="27" y="16" width="9" height="1" fill="#3F2A1F"/>
  <rect x="12" y="17" width="1" height="5" fill="#5A3825"/>
  <rect x="20" y="17" width="1" height="5" fill="#5A3825"/>
  <rect x="27" y="17" width="1" height="5" fill="#5A3825"/>
  <rect x="35" y="17" width="1" height="5" fill="#5A3825"/>
  <rect x="14" y="17" width="2" height="1" fill="#A88566"/>
  <rect x="29" y="17" width="2" height="1" fill="#A88566"/>
  <rect x="22" y="18" width="4" height="1" fill="#5A3825"/>
  <rect x="9"  y="18" width="2" height="1" fill="#2A1A12"/>
  <rect x="37" y="18" width="2" height="1" fill="#2A1A12"/>
  <rect x="14" y="18" width="6" height="3" fill="#FFFFFF"/>
  <rect x="28" y="18" width="6" height="3" fill="#FFFFFF"/>
  <rect x="15" y="19" width="3" height="2" fill="#1F1F1F"/>
  <rect x="29" y="19" width="3" height="2" fill="#1F1F1F"/>
  <rect x="16" y="19" width="1" height="1" fill="#FFFFFF"/>
  <rect x="30" y="19" width="1" height="1" fill="#FFFFFF"/>
  <rect x="13" y="22" width="9" height="1" fill="#A8704A" opacity="0.45"/>
  <rect x="26" y="22" width="9" height="1" fill="#A8704A" opacity="0.45"/>

  <!-- ═══ STRONG NOSE ═══ -->
  <rect x="22" y="19" width="4" height="6" fill="#D69970"/>
  <rect x="22" y="19" width="1" height="6" fill="#E8B084"/>
  <rect x="22" y="19" width="1" height="3" fill="#F2C8A2"/>
  <rect x="25" y="21" width="1" height="4" fill="#B58050"/>
  <rect x="22" y="25" width="4" height="1" fill="#6E4830"/>
  <rect x="21" y="25" width="1" height="1" fill="#6E4830"/>
  <rect x="26" y="25" width="1" height="1" fill="#6E4830"/>

  <!-- ═══ COMPOSED MOUTH (skeptical downturn) ═══ -->
  <rect x="18" y="26" width="12" height="1" fill="#3F2818"/>
  <rect x="17" y="27" width="1"  height="1" fill="#3F2818"/>
  <rect x="30" y="27" width="1"  height="1" fill="#3F2818"/>

  <!-- ═══ NECK STUB ═══ -->
  <rect x="19" y="33" width="10" height="6" fill="#D69970"/>
  <rect x="19" y="33" width="10" height="1" fill="#6E4830"/>
  <rect x="19" y="33" width="1"  height="6" fill="#6E4830"/>
  <rect x="28" y="33" width="1"  height="6" fill="#6E4830"/>
  <rect x="20" y="34" width="8"  height="1" fill="#E8B084"/>
  <!-- collar shadow at bottom -->
  <rect x="14" y="39" width="20" height="2" fill="#6E4830" opacity="0.5"/>
  <rect x="13" y="41" width="22" height="3" fill="#3F2818" opacity="0.35"/>

  <rect x="2"  y="14" width="1" height="1" fill="#FFFFFF"/>
  <rect x="44" y="15" width="1" height="1" fill="#FFFFFF"/>
  <rect x="1"  y="25" width="1" height="1" fill="#FFFFFF" opacity="0.7"/>
  <rect x="46" y="28" width="1" height="1" fill="#FFFFFF" opacity="0.7"/>
</svg>
